<svg width="189" height="188" viewBox="0 0 189 188" fill="none" xmlns="http://www.w3.org/2000/svg">
<g filter="url(#filter0_ii)">
<path d="M0.724304 95.6826C0.724313 73.5 14.0001 13 73.5 2.49999C133 -7.99998 173.5 34.5001 181.5 73.5C189.5 112.5 162.5 146.5 142 149.5C113.451 153.678 97.5419 138.954 95.5 119.5C93 95.6826 103 94 100.5 73.5C98 53 23 2.49998 0.724304 95.6826Z" fill="url(#paint0_linear)"/>
</g>
<g filter="url(#filter1_ii)">
<path d="M189 108.5C180 138 162.592 178.36 106.592 186.36C50.5919 194.36 5.00003 142.492 4.99992 105.5C4.99983 74.4998 32.9999 47.4998 63.0001 52.9998C90.5411 58.0489 94 88.4998 86 105.5C69.9075 139.696 137.5 210.5 189 108.5Z" fill="url(#paint1_linear)"/>
</g>
<defs>
<filter id="filter0_ii" x="-9.2757" y="-9.11993" width="192.216" height="159.333" filterUnits="userSpaceOnUse" color-interpolation-filters="sRGB">
<feFlood flood-opacity="0" result="BackgroundImageFix"/>
<feBlend mode="normal" in="SourceGraphic" in2="BackgroundImageFix" result="shape"/>
<feColorMatrix in="SourceAlpha" type="matrix" values="0 0 0 0 0 0 0 0 0 0 0 0 0 0 0 0 0 0 127 0" result="hardAlpha"/>
<feOffset dy="-10"/>
<feGaussianBlur stdDeviation="5"/>
<feComposite in2="hardAlpha" operator="arithmetic" k2="-1" k3="1"/>
<feColorMatrix type="matrix" values="0 0 0 0 0.0594999 0 0 0 0 0 0 0 0 0 0.425 0 0 0 1 0"/>
<feBlend mode="normal" in2="shape" result="effect1_innerShadow"/>
<feColorMatrix in="SourceAlpha" type="matrix" values="0 0 0 0 0 0 0 0 0 0 0 0 0 0 0 0 0 0 127 0" result="hardAlpha"/>
<feOffset dx="-10"/>
<feGaussianBlur stdDeviation="5"/>
<feComposite in2="hardAlpha" operator="arithmetic" k2="-1" k3="1"/>
<feColorMatrix type="matrix" values="0 0 0 0 0.0285833 0 0 0 0 0 0 0 0 0 0.204167 0 0 0 0.25 0"/>
<feBlend mode="normal" in2="effect1_innerShadow" result="effect2_innerShadow"/>
</filter>
<filter id="filter1_ii" x="4.99991" y="52.2834" width="194" height="144.902" filterUnits="userSpaceOnUse" color-interpolation-filters="sRGB">
<feFlood flood-opacity="0" result="BackgroundImageFix"/>
<feBlend mode="normal" in="SourceGraphic" in2="BackgroundImageFix" result="shape"/>
<feColorMatrix in="SourceAlpha" type="matrix" values="0 0 0 0 0 0 0 0 0 0 0 0 0 0 0 0 0 0 127 0" result="hardAlpha"/>
<feOffset dy="10"/>
<feGaussianBlur stdDeviation="5"/>
<feComposite in2="hardAlpha" operator="arithmetic" k2="-1" k3="1"/>
<feColorMatrix type="matrix" values="0 0 0 0 0.0045 0 0 0 0 0 0 0 0 0 0.225 0 0 0 0.51 0"/>
<feBlend mode="normal" in2="shape" result="effect1_innerShadow"/>
<feColorMatrix in="SourceAlpha" type="matrix" values="0 0 0 0 0 0 0 0 0 0 0 0 0 0 0 0 0 0 127 0" result="hardAlpha"/>
<feOffset dx="10"/>
<feGaussianBlur stdDeviation="5"/>
<feComposite in2="hardAlpha" operator="arithmetic" k2="-1" k3="1"/>
<feColorMatrix type="matrix" values="0 0 0 0 0.0390833 0 0 0 0 0 0 0 0 0 0.279167 0 0 0 0.55 0"/>
<feBlend mode="normal" in2="effect1_innerShadow" result="effect2_innerShadow"/>
</filter>
<linearGradient id="paint0_linear" x1="160.516" y1="59.4444" x2="55.5156" y2="-34.5557" gradientUnits="userSpaceOnUse">
<stop stop-color="#0500FF"/>
<stop offset="1" stop-color="#01003A"/>
</linearGradient>
<linearGradient id="paint1_linear" x1="28.0763" y1="128.938" x2="133.076" y2="222.938" gradientUnits="userSpaceOnUse">
<stop stop-color="#0500FF"/>
<stop offset="1" stop-color="#01003A"/>
</linearGradient>
</defs>
</svg>
