<svg width="176" height="176" viewBox="0 0 176 176" fill="none" xmlns="http://www.w3.org/2000/svg">
<rect y="87.7374" width="124.079" height="20" transform="rotate(-45 0 87.7374)" fill="#FFC803"/>
<rect x="24" y="106.149" width="90.7251" height="20" transform="rotate(-45 24 106.149)" fill="#FFC803"/>
<rect x="74.5916" y="119.561" width="64.4326" height="20" transform="rotate(-45 74.5916 119.561)" fill="#FFC803"/>
<rect x="74" y="161.737" width="124.079" height="20" transform="rotate(-45 74 161.737)" fill="#FFC803"/>
<rect width="124.079" height="20" transform="matrix(-0.707107 -0.707107 -0.707107 0.707107 175.88 87.7374)" fill="#FFC803"/>
<rect width="94.5007" height="20" transform="matrix(-0.707107 -0.707107 -0.707107 0.707107 101.88 161.737)" fill="#FFC803"/>
<rect width="53.1681" height="20" transform="matrix(-0.707107 -0.707107 -0.707107 0.707107 133.738 87.5955)" fill="#FFC803"/>
<rect width="35.0946" height="20" transform="matrix(-0.707107 -0.707107 -0.707107 0.707107 102.738 119.596)" fill="#FFC803"/>
</svg>
