<svg width="178" height="180" viewBox="0 0 178 180" fill="none" xmlns="http://www.w3.org/2000/svg">
<path d="M1.75265 62.3829C-7.74733 72.3829 21.8995 8.88294 77.8995 0.88288C133.9 -7.11718 170.483 40.9214 176.5 77.4214C180.215 99.9599 169 127.921 137.015 124.944C111.112 122.534 98 96.4214 99.5 72.8829C101.904 35.1657 58 6.29717 1.75265 62.3829Z" fill="url(#paint0_linear)"/>
<path d="M175.43 116.781C184.93 106.781 155.283 170.281 99.283 178.281C43.283 186.281 6.69948 138.242 0.682556 101.742C-3.03285 79.2036 8.18256 51.2421 40.1671 54.219C66.0706 56.63 79.1826 82.7421 77.6825 106.281C75.2789 143.998 119.182 172.866 175.43 116.781Z" fill="url(#paint1_linear)"/>
<defs>
<linearGradient id="paint0_linear" x1="156.516" y1="57.4445" x2="51.5154" y2="-36.5556" gradientUnits="userSpaceOnUse">
<stop stop-color="#0500FF"/>
<stop offset="1" stop-color="#01003A"/>
</linearGradient>
<linearGradient id="paint1_linear" x1="20.6669" y1="121.719" x2="125.667" y2="215.719" gradientUnits="userSpaceOnUse">
<stop stop-color="#0500FF"/>
<stop offset="1" stop-color="#01003A"/>
</linearGradient>
</defs>
</svg>
