<svg width="177" height="182" viewBox="0 0 177 182" fill="none" xmlns="http://www.w3.org/2000/svg">
<path d="M4.85311 64C-4.64688 74 22.6565 0 80.3862 0C138.116 0 168.775 33 175.616 74.5C179.242 96.5 174.616 122.5 140.616 127.5C105.116 127.5 100.921 110.66 95.1159 84C82.3788 25.5 24.1943 34 4.85311 64Z" fill="url(#paint0_linear)"/>
<path d="M171.796 117.5C181.296 107.5 153.992 181.5 96.2627 181.5C38.533 181.5 7.8742 148.5 1.03305 107C-2.59358 85 2.03305 59 36.0331 54C71.5331 54 75.7283 70.8399 81.533 97.5C94.2701 156 152.455 147.5 171.796 117.5Z" fill="url(#paint1_linear)"/>
<defs>
<linearGradient id="paint0_linear" x1="163.329" y1="91.861" x2="54.3292" y2="3.36101" gradientUnits="userSpaceOnUse">
<stop stop-color="#6B69D2"/>
<stop offset="1" stop-color="#141342"/>
</linearGradient>
<linearGradient id="paint1_linear" x1="13.3197" y1="89.639" x2="122.32" y2="178.139" gradientUnits="userSpaceOnUse">
<stop stop-color="#6B69D2"/>
<stop offset="1" stop-color="#141342"/>
</linearGradient>
</defs>
</svg>
