<svg width="172" height="172" viewBox="0 0 172 172" fill="none" xmlns="http://www.w3.org/2000/svg">
<rect x="80" y="1" width="15" height="170" fill="#96CFDC"/>
<rect x="70.5925" y="1" width="25" height="7" transform="rotate(41.0015 70.5925 1)" fill="#8ECCE0"/>
<rect x="110.114" y="5.14186" width="25" height="7" transform="rotate(137.269 110.114 5.14186)" fill="#8ECCE0"/>
<rect x="87.1136" y="154.142" width="25" height="7" transform="rotate(137.269 87.1136 154.142)" fill="#8ECCE0"/>
<rect x="87.1136" y="138.142" width="25" height="7" transform="rotate(137.269 87.1136 138.142)" fill="#8ECCE0"/>
<rect x="110.114" y="22.1419" width="25" height="7" transform="rotate(137.269 110.114 22.1419)" fill="#8ECCE0"/>
<rect x="93.5925" y="134" width="25" height="7" transform="rotate(41.0015 93.5925 134)" fill="#8ECCE0"/>
<rect x="91.5925" y="150" width="25" height="7" transform="rotate(41.0015 91.5925 150)" fill="#8ECCE0"/>
<rect x="68.5925" y="18" width="25" height="7" transform="rotate(41.0015 68.5925 18)" fill="#8ECCE0"/>
<rect x="153.11" y="33.9929" width="15" height="170" transform="rotate(57.2241 153.11 33.9929)" fill="#96CFDC"/>
<rect x="148.017" y="26.0831" width="25" height="7" transform="rotate(98.2256 148.017 26.0831)" fill="#8ECCE0"/>
<rect x="165.929" y="61.5545" width="25" height="7" transform="rotate(-165.507 165.929 61.5545)" fill="#8ECCE0"/>
<rect x="28.1999" y="122.878" width="25" height="7" transform="rotate(-165.507 28.1999 122.878)" fill="#8ECCE0"/>
<rect x="41.6526" y="114.216" width="25" height="7" transform="rotate(-165.507 41.6526 114.216)" fill="#8ECCE0"/>
<rect x="151.636" y="70.7575" width="25" height="7" transform="rotate(-165.507 151.636 70.7575)" fill="#8ECCE0"/>
<rect x="48.6424" y="117.422" width="25" height="7" transform="rotate(98.2256 48.6424 117.422)" fill="#8ECCE0"/>
<rect x="34.107" y="124.402" width="25" height="7" transform="rotate(98.2256 34.107 124.402)" fill="#8ECCE0"/>
<rect x="132.641" y="33.6046" width="25" height="7" transform="rotate(98.2256 132.641 33.6046)" fill="#8ECCE0"/>
<rect x="10.2468" y="48.209" width="15" height="170" transform="rotate(-57.5085 10.2468 48.209)" fill="#96CFDC"/>
<rect x="5.19336" y="56.1439" width="25" height="7" transform="rotate(-16.507 5.19336 56.1439)" fill="#8ECCE0"/>
<rect x="29.9167" y="25.0339" width="25" height="7" transform="rotate(79.7608 29.9167 25.0339)" fill="#8ECCE0"/>
<rect x="143.239" y="124.473" width="25" height="7" transform="rotate(79.7608 143.239 124.473)" fill="#8ECCE0"/>
<rect x="129.743" y="115.878" width="25" height="7" transform="rotate(79.7608 129.743 115.878)" fill="#8ECCE0"/>
<rect x="44.2557" y="34.1658" width="25" height="7" transform="rotate(79.7608 44.2557 34.1658)" fill="#8ECCE0"/>
<rect x="129.73" y="108.188" width="25" height="7" transform="rotate(-16.507 129.73 108.188)" fill="#8ECCE0"/>
<rect x="142.151" y="118.47" width="25" height="7" transform="rotate(-16.507 142.151 118.47)" fill="#8ECCE0"/>
<rect x="18.4581" y="66.9628" width="25" height="7" transform="rotate(-16.507 18.4581 66.9628)" fill="#8ECCE0"/>
</svg>
