<svg width="186" height="180" viewBox="0 0 186 180" fill="none" xmlns="http://www.w3.org/2000/svg">
<rect x="85" width="19" height="180" fill="#A3E1EF"/>
<rect x="71.5281" y="6" width="37" height="9" transform="rotate(37.8968 71.5281 6)" fill="#A3E1EF"/>
<rect x="123.705" y="15.7999" width="37" height="9.93256" transform="rotate(147.395 123.705 15.7999)" fill="#A3E1EF"/>
<rect x="99.5212" y="157.367" width="37" height="9.93256" transform="rotate(147.395 99.5212 157.367)" fill="#A3E1EF"/>
<rect x="94.5281" y="147" width="37" height="9" transform="rotate(37.8968 94.5281 147)" fill="#A3E1EF"/>
<rect x="163.424" y="32.8919" width="19" height="180" transform="rotate(56.1247 163.424 32.8919)" fill="#A3E1EF"/>
<rect x="150.934" y="25.0512" width="37" height="9" transform="rotate(94.0214 150.934 25.0512)" fill="#A3E1EF"/>
<rect x="171.88" y="73.8335" width="37" height="9.93256" transform="rotate(-156.48 171.88 73.8335)" fill="#A3E1EF"/>
<rect x="40.8635" y="132.663" width="37" height="9.93256" transform="rotate(-156.48 40.8635 132.663)" fill="#A3E1EF"/>
<rect x="46.6879" y="122.739" width="37" height="9" transform="rotate(94.0214 46.6879 122.739)" fill="#A3E1EF"/>
<rect x="174.049" y="130.74" width="19" height="180" transform="rotate(122.099 174.049 130.74)" fill="#A3E1EF"/>
<rect x="176.124" y="116.139" width="37" height="9" transform="rotate(159.996 176.124 116.139)" fill="#A3E1EF"/>
<rect x="140.097" y="155.133" width="37" height="9.93256" transform="rotate(-90.5058 140.097 155.133)" fill="#A3E1EF"/>
<rect x="33.0213" y="59.4193" width="37" height="9.93256" transform="rotate(-90.5058 33.0213 59.4193)" fill="#A3E1EF"/>
<rect x="44.457" y="60.6985" width="37" height="9" transform="rotate(159.996 44.457 60.6985)" fill="#A3E1EF"/>
</svg>
